<?xml version="1.0" encoding="UTF-8" ?>
<!DOCTYPE svg PUBLIC "-//W3C//DTD SVG 1.1//EN" "http://www.w3.org/Graphics/SVG/1.1/DTD/svg11.dtd">
<svg width="100pt" height="100pt" viewBox="0 0 100 100" version="1.1" xmlns="http://www.w3.org/2000/svg">
<g id="#ffffffff">
<path fill="#ffffff" opacity="1.00" d=" M 62.36 0.00 L 63.55 0.00 C 65.94 2.20 69.03 3.30 71.89 4.73 C 64.59 19.74 57.16 34.68 49.86 49.69 C 47.28 56.27 41.42 60.66 36.44 65.38 C 37.12 58.87 36.62 51.80 40.14 45.99 C 46.90 32.45 53.47 18.81 60.22 5.26 C 61.03 3.55 61.89 1.84 62.36 0.00 M 37.95 60.35 L 37.75 61.17 C 38.55 63.61 40.48 59.30 37.95 60.35 Z" />
<path fill="#ffffff" opacity="1.00" d=" M 19.74 42.77 C 23.71 42.12 27.67 41.42 31.67 40.94 C 32.89 42.43 34.15 43.90 35.38 45.39 C 30.92 46.28 26.44 47.09 21.96 47.88 C 21.23 46.17 20.48 44.47 19.74 42.77 Z" />
<path fill="#ffffff" opacity="1.00" d=" M 22.22 48.47 C 26.77 47.54 31.38 46.95 35.86 45.72 C 36.39 46.30 37.44 47.46 37.96 48.04 C 37.45 49.90 37.04 51.79 36.64 53.68 C 35.33 54.01 34.03 54.35 32.73 54.72 C 33.60 54.97 35.33 55.48 36.19 55.73 C 34.96 55.64 33.74 55.53 32.52 55.41 L 32.65 54.39 C 30.33 55.16 27.94 55.71 25.51 56.02 C 24.44 53.50 23.33 50.98 22.22 48.47 Z" />
<path fill="#ffffff" opacity="1.00" d=" M 3.66 62.50 C 10.41 61.03 17.11 59.27 23.92 58.01 C 25.51 62.47 27.24 66.87 28.91 71.30 C 20.05 73.91 11.17 76.44 2.33 79.10 C 2.82 73.57 3.23 68.04 3.66 62.50 Z" />
<path fill="#ffffff" opacity="1.00" d=" M 56.84 65.41 C 62.74 63.82 68.54 61.33 74.52 60.36 C 82.06 65.54 89.79 70.50 97.11 75.99 C 90.21 79.26 83.18 82.25 76.23 85.39 C 69.78 78.71 63.31 72.07 56.84 65.41 Z" />
<path fill="#ffffff" opacity="1.00" d=" M 32.87 72.66 C 40.08 70.47 47.27 68.24 54.50 66.13 C 60.66 73.08 67.02 79.86 73.20 86.80 C 63.65 91.03 54.09 95.27 44.59 99.63 C 40.70 90.63 36.67 81.70 32.87 72.66 Z" />
</g>
</svg>
